# xmcd
#
# Track frame offsets:
#        150
#        22970
#        41909
#        66274
#        81465
#        107293
#        127827
#        150618
#        173869
#        196437
#        216058
#        239246
#        266335
#
# Disc length: 3675 seconds
#
# Revision: 0
# Processed by: cddbd v1.5.1PL0 Copyright (c) Steve Scherf et al.
# Submitted via: ExactAudioCopy v0.95b3
#
DISCID=b20e590d
DTITLE=SMILY SLAYERS - Best shit issue 2
DYEAR=2005
DGENRE=Hardcore
TTITLE0=yakuza core
TTITLE1=twrd
TTITLE2=zenmondoh
TTITLE3=shut away myself
TTITLE4=man is mortal
TTITLE5=muscle inferuno
TTITLE6=climax
TTITLE7=r y
TTITLE8=mahya
TTITLE9=death and reverse
TTITLE10=mahya
TTITLE11=soushitu
TTITLE12=ev
EXTD=
EXTT0=
EXTT1=
EXTT2=
EXTT3=
EXTT4=
EXTT5=
EXTT6=
EXTT7=
EXTT8=
EXTT9=
EXTT10=
EXTT11=
EXTT12=
PLAYORDER=
